<?xml version="1.0" encoding="utf-8"?>
<!-- Generator: Adobe Illustrator 15.0.0, SVG Export Plug-In . SVG Version: 6.00 Build 0)  -->
<!DOCTYPE svg PUBLIC "-//W3C//DTD SVG 1.1//EN" "http://www.w3.org/Graphics/SVG/1.1/DTD/svg11.dtd">
<svg version="1.1" id="图层_1" xmlns="http://www.w3.org/2000/svg" xmlns:xlink="http://www.w3.org/1999/xlink" x="0px" y="0px"
	 width="935.43px" height="538.58px" viewBox="0 0 935.43 538.58" enable-background="new 0 0 935.43 538.58" xml:space="preserve">
<rect x="-84.359" y="15.562" fill="#F1F2F2" width="941.663" height="467.414"/>
<g>
	<g>
		<path fill-rule="evenodd" clip-rule="evenodd" fill="#FFFFFF" d="M434.972,256.113v-15.271h15.269v9.815
			c0,3.275-1.271,5.087-3.814,5.456v4.729h3.639v4.181h-3.639v7.272c1.45-0.363,2.906-0.793,4.359-1.279v4.545
			c-5.452,1.935-11.322,3.397-17.625,4.365v-5.087c0.24,0,0.542-0.062,0.906-0.184c0.363,0,0.604,0,0.727,0v-15.998h4.545v15.266
			l1.816-0.358v-17.452H434.972L434.972,256.113z M450.785,263.565v-3.992c0.123,0,0.364-0.066,0.728-0.189
			c3.513-1.208,5.88-2.241,7.088-3.085c-1.448-1.336-2.846-2.908-4.181-4.729c-1.091,0.486-2.179,1.028-3.271,1.637v-3.817
			c2.792-2.421,4.667-5.691,5.637-9.816h6.358c-0.123,0.247-0.24,0.615-0.363,1.09c-0.24,0.732-0.43,1.275-0.542,1.638h11.995v4.365
			c-2.064,4.361-4.304,7.569-6.725,9.632c2.421,1.208,5.148,2.303,8.174,3.274v4.176c-5.576-1.335-9.755-2.788-12.539-4.365
			C459.998,261.083,455.878,262.479,450.785,263.565L450.785,263.565z M452.607,280.105v-16.719h20.719v10.901
			c0,3.879-2.064,5.818-6.18,5.818H452.607L452.607,280.105z M458.601,276.104h6.545c1.699,0.123,2.488-0.732,2.364-2.543v-5.63
			h-8.909V276.104L458.601,276.104z M440.248,252.112h2.907c1.208,0,1.812-0.671,1.812-2.001v-5.088h-4.719V252.112L440.248,252.112
			z M459.873,246.845c-0.116,0.123-0.306,0.302-0.543,0.543c-0.241,0.363-0.428,0.604-0.543,0.727
			c1.211,1.817,2.598,3.455,4.179,4.913c1.325-1.213,2.784-3.276,4.36-6.183H459.873L459.873,246.845z M483.094,279.194v-4.54
			h15.635v-35.082h7.451v12.359h15.633v4.724H506.18v17.999H524.9v4.54H483.094L483.094,279.194z M533.048,245.576v-4.371h9.087
			c2.178,0,4.784-0.363,7.816-1.085v4.54c-1.699,0.487-3.459,0.788-5.273,0.916v5.261h4.91v4.365h-4.91
			c1.211,3.393,2.784,6.423,4.721,9.089v6.172c-1.937-2.053-3.51-4.053-4.721-5.993v16.719h-6.18v-14.719
			c-1.576,2.785-3.689,5.513-6.358,8.184v-5.818c2.909-4.729,4.907-9.274,5.995-13.634h-5.453v-4.365h5.816v-5.261H533.048
			L533.048,245.576z M550.31,270.653v-4.545h13.086v-26.536h6.725v26.536h4.724v4.545h-4.724v10.537h-6.725v-10.537H550.31
			L550.31,270.653z M561.21,262.654c-3.628-2.303-7.142-3.694-10.536-4.176v-4.909c3.873,0.364,7.39,1.332,10.536,2.908V262.654
			L561.21,262.654z M562.127,251.2c-3.275-1.688-6.668-2.907-10.185-3.628v-4.729c4.12,0.24,7.516,1.096,10.185,2.543V251.2
			L562.127,251.2z M597.345,248.662v-4.365h9.086v-4.913h7.088v4.913h10.185v4.365h-10.185v5.814h9.089v4.365
			c-1.699,5.691-4.304,10.235-7.814,13.634c2.544,1.688,5.573,3.147,9.089,4.355v4.365c-5.215-1.331-9.821-3.09-13.813-5.271
			c-3.639,1.817-8.421,3.639-14.36,5.451v-4.182c3.76-1.208,7.086-2.778,9.995-4.718c-3.024-2.907-5.578-6.848-7.63-11.817h6.9
			c1.456,3.029,3.217,5.634,5.273,7.814c2.181-2.543,4.002-5.751,5.451-9.631H597.71v-4.365h8.721v-5.814H597.345L597.345,248.662z
			 M582.262,249.573v-4.366h3.995v-5.629h6.543v5.629h3.452v4.366H592.8v8.536c1.093-0.234,2.303-0.603,3.636-1.085v4.54
			c-1.333,0.615-2.543,1.09-3.636,1.458v12.175c0,3.875-1.938,5.814-5.816,5.814h-4.002v-4.181h1.459
			c1.21,0,1.816-0.665,1.816-2.001v-10.174c-1.213,0.368-2.669,0.608-4.36,0.732v-5.456c0.48,0,1.21-0.056,2.18-0.184
			c0.968,0,1.699-0.062,2.181-0.175v-10H582.262L582.262,249.573z"/>
		<path fill-rule="evenodd" clip-rule="evenodd" fill="#FFFFFF" d="M433.16,299.066v-6.55h1.249v5.788h3.475v0.762H433.16
			L433.16,299.066z M439.281,296.298v-3.782h1.248v4.053c0,1.238,0.538,1.858,1.615,1.858c1.118,0.041,1.655-0.579,1.614-1.858
			v-4.053h1.252v3.715c0.103,2.073-0.863,3.061-2.897,2.958C440.185,299.23,439.24,298.263,439.281,296.298L439.281,296.298z
			 M446.559,297.848v-1.008c0.752,1.08,1.638,1.607,2.65,1.587c0.978-0.021,1.475-0.374,1.494-1.065
			c-0.02-0.609-0.485-0.987-1.401-1.131c-1.827-0.261-2.682-0.931-2.559-2.011c0.062-1.157,0.874-1.756,2.438-1.797
			c1.502,0.021,2.387,0.691,2.65,2.011h-1.22c-0.224-0.772-0.691-1.167-1.403-1.187c-0.79,0-1.188,0.312-1.188,0.941
			c-0.04,0.553,0.407,0.896,1.342,1.039c1.771,0.302,2.65,0.988,2.65,2.042c-0.018,1.28-0.893,1.919-2.62,1.919
			C448.135,299.189,447.188,298.745,446.559,297.848L446.559,297.848z M453.442,299.066v-6.55h1.248v2.743h3.201v-2.743h1.251v6.55
			h-1.251v-2.983h-3.201v2.983H453.442L453.442,299.066z M460.294,299.066l2.56-6.55h1.524l2.528,6.55h-1.31l-0.641-1.643h-2.712
			l-0.609,1.643H460.294L460.294,299.066z M463.585,293.672l-1.036,2.958h2.104L463.585,293.672L463.585,293.672z M468.089,299.066
			v-6.582h1.254l3.198,4.847v-4.847h1.249v6.582h-1.219l-3.229-4.724v4.724H468.089L468.089,299.066z M481.405,294.343h-1.311
			c-0.267-0.732-0.813-1.105-1.646-1.126c-1.24,0.102-1.891,0.962-1.952,2.59c0.082,1.667,0.772,2.539,2.073,2.621
			c0.854,0,1.412-0.333,1.676-1.003v-1.254h-2.009v-0.788h3.198v2.437c-0.445,0.916-1.402,1.371-2.865,1.371
			c-2.155-0.082-3.271-1.208-3.353-3.382c0.103-2.155,1.177-3.281,3.231-3.383C479.992,292.423,480.978,293.063,481.405,294.343
			L481.405,294.343z M484.91,299.066v-6.582h1.249v6.582H484.91L484.91,299.066z M487.771,299.066v-6.582h1.249l3.198,4.847v-4.847
			h1.251v6.582h-1.221l-3.229-4.724v4.724H487.771L487.771,299.066z M494.896,293.309v-0.793h5.67v0.793h-2.226v5.757h-1.249v-5.757
			H494.896L494.896,293.309z M501.993,299.066v-6.55h5.06v0.793h-3.811v2.011h3.567v0.793h-3.567v2.19h3.811v0.762H501.993
			L501.993,299.066z M508.416,299.066v-6.55h1.249v5.788h3.478v0.762H508.416L508.416,299.066z M514.476,299.066v-6.55h1.251v5.788
			h3.475v0.762H514.476L514.476,299.066z M520.507,299.066v-6.582h1.249v6.582H520.507L520.507,299.066z M529.34,294.343h-1.313
			c-0.261-0.732-0.812-1.105-1.643-1.126c-1.238,0.102-1.889,0.962-1.95,2.59c0.079,1.667,0.771,2.539,2.07,2.621
			c0.854,0,1.413-0.333,1.677-1.003v-1.254h-2.012v-0.788h3.201v2.437c-0.448,0.916-1.402,1.371-2.866,1.371
			c-2.151-0.082-3.271-1.208-3.353-3.382c0.1-2.155,1.18-3.281,3.232-3.383C527.928,292.423,528.912,293.063,529.34,294.343
			L529.34,294.343z M530.857,299.066v-6.55h5.062v0.793h-3.813v2.011h3.567v0.793h-3.567v2.19h3.813v0.762H530.857L530.857,299.066z
			 M537.313,299.066v-6.582h1.252l3.198,4.847v-4.847h1.248v6.582h-1.218l-3.229-4.724v4.724H537.313L537.313,299.066z
			 M544.439,293.309v-0.793h5.671v0.793h-2.226v5.757h-1.249v-5.757H544.439L544.439,293.309z M553.37,293.309v-0.793h5.671v0.793
			h-2.227v5.757h-1.249v-5.757H553.37L553.37,293.309z M560.466,299.066v-6.55h5.06v0.793h-3.809v2.011h3.565v0.793h-3.565v2.19
			h3.809v0.762H560.466L560.466,299.066z M572.653,294.527h-1.249c-0.245-0.854-0.752-1.29-1.523-1.31
			c-1.224,0.056-1.854,0.942-1.892,2.651c0.062,1.606,0.78,2.457,2.162,2.559c0.937,0.02,1.75-0.498,2.44-1.556v1.1
			c-0.57,0.814-1.483,1.217-2.742,1.217c-1.991-0.102-3.041-1.228-3.143-3.382c0.102-2.134,1.139-3.26,3.111-3.383
			C571.361,292.464,572.306,293.166,572.653,294.527L572.653,294.527z M574.076,299.066v-6.55h1.252v2.743h3.201v-2.743h1.248v6.55
			h-1.248v-2.983h-3.201v2.983H574.076L574.076,299.066z M581.418,299.066v-6.582h1.251l3.198,4.847v-4.847h1.249v6.582h-1.218
			l-3.229-4.724v4.724H581.418L581.418,299.066z M591.775,298.427c1.28-0.041,1.94-0.907,1.981-2.59
			c-0.062-1.663-0.712-2.539-1.952-2.62c-1.26,0.102-1.92,0.972-1.981,2.62C589.885,297.485,590.535,298.345,591.775,298.427
			L591.775,298.427z M591.775,299.189c-2.055-0.123-3.129-1.238-3.23-3.352c0.102-2.195,1.187-3.332,3.26-3.414
			c2.014,0.123,3.091,1.26,3.231,3.414C594.937,297.972,593.847,299.087,591.775,299.189L591.775,299.189z M596.464,299.066v-6.55
			h1.249v5.788h3.478v0.762H596.464L596.464,299.066z M605.57,298.427c1.28-0.041,1.945-0.907,1.98-2.59
			c-0.061-1.663-0.711-2.539-1.949-2.62c-1.259,0.102-1.919,0.972-1.98,2.62C603.683,297.485,604.332,298.345,605.57,298.427
			L605.57,298.427z M605.57,299.189c-2.052-0.123-3.129-1.238-3.229-3.352c0.1-2.195,1.188-3.332,3.26-3.414
			c2.012,0.123,3.091,1.26,3.229,3.414C608.733,297.972,607.644,299.087,605.57,299.189L605.57,299.189z M616.267,294.343h-1.315
			c-0.261-0.732-0.808-1.105-1.643-1.126c-1.238,0.102-1.889,0.962-1.949,2.59c0.081,1.667,0.772,2.539,2.072,2.621
			c0.854,0,1.413-0.333,1.674-1.003v-1.254h-2.012v-0.788h3.204v2.437c-0.45,0.916-1.402,1.371-2.866,1.371
			c-2.154-0.082-3.27-1.208-3.352-3.382c0.097-2.155,1.177-3.281,3.229-3.383C614.854,292.423,615.837,293.063,616.267,294.343
			L616.267,294.343z M619.946,299.066v-2.62l-2.65-3.93h1.464l1.827,2.921l1.862-2.921h1.433l-2.687,3.93v2.62H619.946
			L619.946,299.066z"/>
	</g>
	<g>
		<linearGradient id="SVGID_1_" gradientUnits="userSpaceOnUse" x1="396.7676" y1="280.0503" x2="346.8582" y2="286.2142">
			<stop  offset="0" style="stop-color:#00B8F1"/>
			<stop  offset="1" style="stop-color:#0088CF"/>
		</linearGradient>
		<path fill-rule="evenodd" clip-rule="evenodd" fill="url(#SVGID_1_)" d="M362.939,309.462c2.404-0.131,4.963-1.313,7.307-1.131
			c-1.104,0.918-3.076,0.962-3.967,1.379c2.58,0.149,5.607-1.271,8.379-1.679c-0.113-0.35-0.93,0.17-1.32,0.165
			c1.668-1.943,8.008-3.233,11.223-5.496c-2.557,0.933-5.822,2.798-8.926,3.418c5.496-2.673,10.635-4.729,15.277-8.8
			c-1.24-0.007-2.795,1.972-4.563,2.383c0.367-0.23,1.977-1.305,1.154-1.483c2.055-1.608,4.9-2.606,7.178-5.216
			c0.168,0.098,0.012,0.33-0.039,0.518c4.066-3.283,6.385-8.188,9.174-13.845c0.328,0.746-0.688,2.044-0.684,2.927
			c1.764-3.403,3.469-8.878,3.797-12.519c-1.082,3.262-2.273,5.563-4.051,8.844c-0.188,0.268-0.33-0.431-0.494,0.33
			c1.293-3.64,2.561-7.271,2.543-10.369c-1.002,1.404-0.633,3.923-1.918,5.453c0.813-3.863,1.805-7.797,2.531-11.622
			c-1.957,4.293-1.982,9.398-4.32,14.621c0.084-1.039-0.592-0.011-0.836,0.724c0.424-2.485,2.111-5.488,2.629-8.01
			c-1.947,4.957-4.275,10.815-7.439,14.395c-0.002-1.138,1.242-1.881,1.549-3.282c0.375-0.685-0.119-0.482-0.215,0.088
			c-1.57,2.514-3.131,5.049-4.998,6.84c0.584-1.646,2.309-3.163,3.107-5.308c-0.896,0.148,1.004-2.081,1.182-3.257
			c-1.516,2.64-3.969,6.444-5.277,7.082c-0.637,0.596-1.195,1.379-1.865,1.896c-0.16-0.099-0.02-0.186,0.064-0.148
			c-0.201-0.283-1.473,0.776-1.395,1.202c-1.854,1.248-4.463,3.668-7.051,4.914c-0.967,0.462-2.141,0.642-3.17,1.173
			c-0.516,0.268-0.906,0.802-1.486,0.989c-0.727,0.237-1.686,0.075-2.48,0.391c-0.535,0.212-0.916,0.731-1.422,0.836
			c-0.168,0.034-0.59-0.318-0.76-0.317c-0.744,0.006-1.344,0.602-1.965,0.43c0.482-0.256,1.025-0.36,1.596-0.404
			c-2.783,0.172-6.27,1.29-9.859,0.522c1.104-0.074,2.232-0.081,3.398-0.007c0.018-0.415-0.721-0.154-0.979-0.23
			c0.174-0.294,0.533-0.135,0.801-0.204c-0.346-0.516-1.314,0.066-2.016-0.303c0.744-0.52-1.748,0.273-2.598-0.193
			c0.359,0.654,1.336,0.204,1.951,0.459c-2.387,0.117-4.691,0.435-7.58-0.664c1.207,0.014-0.303-0.463-0.938-0.75
			c0.893,0.021,1.926,0.394,2.928,0.688c-0.469-0.72-1.594-0.417-2.434-1.018c0.117-0.191,0.75-0.02,0.127-0.303
			c1.662,0.568,3.115,0.629,4.639,0.863c-5.865-1.372-12.121-5.364-15.189-9.378c0.328-0.363,0.314,0.394,0.672,0.103
			c-0.367-1.024-0.906-1.979-1.887-2.751c0.012,0.163,0.021,0.329,0.178,0.431c-1.357-0.785-2.52-2.742-3.242-4.208
			c0.313-3.204-2.58-5.733-1.703-8.749c-0.219-1.127-0.441-2.255-0.314-3.524c0.273,0.433,0.084,1.057,0.252,1.535
			c0.273-2.188,0.213-5.154,1.029-8.072h-4.48c0,0-0.176,4.56-0.176,6.837c0,2.278-3.154,11.043-2.805,12.972
			c0.352,1.929,6.836,11.568,6.836,11.568l2.98,5.61l9.291,7.713l4.732,0.876l7.012,1.578L362.939,309.462L362.939,309.462z
			 M346.293,289.579c0.236,0.407,0.756,0.698,1.395,0.941C347.414,290.129,346.791,289.88,346.293,289.579L346.293,289.579z
			 M365.959,296.365c-0.33-0.484-1.334,0.007-1.926-0.093C364.32,296.655,365.465,296.5,365.959,296.365L365.959,296.365z
			 M367.072,297.542c0.746,0.337,1.936-0.126,2.422-0.237c1.064-0.245,0.191-0.265-1.039-0.078
			C368.016,297.294,367.781,297.605,367.072,297.542L367.072,297.542z M371.371,296.659c-0.246-0.38-1.193,0.152-1.688,0.188
			C369.898,297.146,370.861,296.655,371.371,296.659L371.371,296.659z M372.5,294.809c-0.023,0.25,0.141,0.042,0.305,0.128
			c-0.396,0.364-0.951,0.346-1.445,0.468c0.064,0.528,0.705-0.093,1.039,0.078c-0.697,0.347-1.424,0.626-2.246,0.67
			c1.656,0.198,3.521-0.385,4.338-1.404c-0.547-0.003-1.018,0.185-1.535,0.252c0.398-0.361,0.959-0.323,1.357-0.685
			C374.527,294.147,372.984,294.672,372.5,294.809L372.5,294.809z M375.15,293.596c-0.246,0.167-1.941,0.439-2.891,0.935
			C371.164,295.1,374.344,294.206,375.15,293.596L375.15,293.596z M378.471,294.624c-0.576-0.065-2.055,0.313-2.738,1
			C376.793,295.648,377.549,294.933,378.471,294.624L378.471,294.624z M376.393,292.326c0.746,0.279,1.93-1.022,2.865-1.301
			C378.525,290.779,377.383,292.178,376.393,292.326L376.393,292.326z M379.715,291.215c-0.924,0.006-2.971,1.555-3.703,2.026
			C377.287,292.667,378.475,291.877,379.715,291.215L379.715,291.215z M382.1,289.354c-0.629,0.208-1.072,0.869-1.699,1.076
			C380.734,290.723,381.684,289.884,382.1,289.354L382.1,289.354z M382.391,288.227c-0.539,0.324-1.125,0.531-1.547,1.14
			C381.383,289.04,381.969,288.833,382.391,288.227L382.391,288.227z M380.08,293.334c-0.604-0.139-1.801,0.927-2.738,0.996
			C378.086,294.809,379.215,293.582,380.08,293.334L380.08,293.334z M381.234,291.852c-0.127,0.507-0.576,0.227-0.773,0.57
			c-0.395-0.322,0.449-0.081,0.406-0.545c-1.164,0.538-2.354,1.014-3.246,2.214c2.32-0.754,4.209-2.47,5.541-4.292
			c0.52,0.142,0.293-0.015,0.902-0.872C382.852,289.288,380.281,291.717,381.234,291.852L381.234,291.852z M386.004,285.983
			c-1.014,0.563-1.26,1.195-2.08,1.989C384.727,287.576,385.326,286.686,386.004,285.983L386.004,285.983z M383.848,286.87
			c-0.043,0.263,0.324-0.021,0.242,0.28c0.566-0.591,0.805-0.472,1.369-1.57c0.303-0.245,0.301-0.254-0.088-0.217
			C384.938,286.046,384.404,286.487,383.848,286.87L383.848,286.87z M386.129,289.966
			C385.4,290.512,386.025,289.449,386.129,289.966c0.498,0.09-0.012-0.385,0.252-0.608c-0.432-0.337-0.477,0.264-0.797,0.202
			c-0.283,0.368,0.174,0.431,0.051,0.735c-0.35-0.163-0.332,0.394-0.902,0.874C385.246,290.884,385.791,290.675,386.129,289.966
			L386.129,289.966z M386.533,289.419c0.428,0.482,1.234-0.833,1.891-1.531c0.686-0.725,1.619-1.481,1.992-2.203
			C389.117,286.718,387.504,288.607,386.533,289.419L386.533,289.419z M389.57,280.868c-0.566,0.257-0.859,1.177-1.371,1.57
			c-0.275,0.309-0.076,0.789,0.09,0.215C388.703,282.03,389.186,281.566,389.57,280.868L389.57,280.868z M394.246,281.212
			c-1.021,1.192-2.072,2.316-2.994,3.751C392.408,284.098,393.313,282.621,394.246,281.212L394.246,281.212z M394.766,281.253
			c-0.76,0.498-1.271,1.605-1.902,2.419C393.549,282.991,394.258,282.367,394.766,281.253L394.766,281.253z M407.262,266.293
			c-0.58,0.411-0.285,1.542-0.584,2.255C407.189,268.168,407.002,266.991,407.262,266.293L407.262,266.293z M407.42,259.932
			c-0.645,0.394-0.076,1.369-0.307,2.014C407.59,261.618,407.334,260.516,407.42,259.932L407.42,259.932z M406.711,258.205
			c0.094,0.171,0.113,0.373,0.113,0.585c0.332-0.146,0.254-1.19,0.115-1.56c-0.387,0.29-0.502,1.546-0.521,2.103
			C406.969,259.259,406.303,258.636,406.711,258.205L406.711,258.205z M354.451,294.415c-0.525-0.755-1.699-0.472-2.582-1.078
			c-0.037,0.688,1.365,0.782,1.998,1.193C353.68,294.061,354.045,294.22,354.451,294.415L354.451,294.415z M350.006,290.953
			c-0.049,0.188,0.223,0.242,0.395,0.342c-0.566,0.241-0.594-0.235-0.764-0.317c-2.488-1.196,1.232,1.392,2.699,1.663
			C351.355,291.896,351.135,291.476,350.006,290.953L350.006,290.953z M360.662,294.509c-1.98-0.735-4.49-0.098-6.932-0.931
			c1.172,0.603,2.016,1.035,3.256,1.181c0.029,0.004-0.111-0.298-0.24-0.276C357.896,294.296,359.371,294.948,360.662,294.509
			L360.662,294.509z M391.359,277.865c-0.807,0.588-1.402,1.694-2.029,2.723C390.111,279.942,390.74,278.914,391.359,277.865
			L391.359,277.865z M393.693,275.27c-0.521,0.578-1.424,2.861-2.17,3.914C392.443,278.354,393.064,276.807,393.693,275.27
			L393.693,275.27z M397.926,276.679c-0.449,0.339-0.781,0.961-1.064,1.698C397.436,278.344,397.6,277.315,397.926,276.679
			L397.926,276.679z M394.635,271.734c-0.836,1.341-1.543,2.989-2.363,4.37C393.15,274.926,394.377,273.456,394.635,271.734
			L394.635,271.734z M399.689,273.309c-0.178-0.415-0.6,1.183-0.85,1.608C399.018,275.333,399.438,273.734,399.689,273.309
			L399.689,273.309z M401.377,270.978c-0.652,1.766-1.711,4.033-2.387,6.146C400.145,275.33,401.285,272.919,401.377,270.978
			L401.377,270.978z M402.023,270.714c-0.477,0.081-0.506,1.037-0.572,1.366C402.039,271.953,401.584,271.196,402.023,270.714
			L402.023,270.714z M405.281,271.893c-0.535,0.477-1.059,2.028-0.713,2.562C405.01,273.517,405.273,272.653,405.281,271.893
			L405.281,271.893z M407.754,270.247c-0.852,0.98-0.705,2.64-1.07,3.842C407.779,273.454,407.717,271.271,407.754,270.247
			L407.754,270.247z M386.223,300.003c-2.486,0.812-3.742,3.153-6.086,3.886c-0.043-0.463,0.799-0.224,0.404-0.543
			c-0.846,0.191-2.031,1.178-2.674,0.846C380.623,302.928,383.695,300.804,386.223,300.003L386.223,300.003z M372.924,305.342
			c-0.354,0.103-0.6-0.239-0.609-0.255l0,0l0,0c-0.057,0.057,0.047,0.365,0.025,0.368c-3.199,0.387-4.857,0.663-7.199,0.564
			c-0.953-0.039-0.795-0.027,0.064-0.149c4.285-0.62,8.121-0.911,12.092-2.451c2.383-0.924,4.373-2.477,6.25-2.569
			c-3.111,1.415-6.342,4.184-9.611,4.202c0.305-0.1,1.254-0.195,0.99-0.66C373.918,304.53,373.018,305.313,372.924,305.342
			L372.924,305.342z M384.34,292.969c-1.572,1.184-3.266,2.066-5.148,2.492C380.834,294.326,383.41,293.217,384.34,292.969
			L384.34,292.969z M368.467,298.483c-2.422,0.439-5.504,0.906-8.049,0.03C363.012,298.686,366.674,298.219,368.467,298.483
			L368.467,298.483z M402.893,280.18c0.619-1.457,1.225-2.942,2.193-3.545C404.721,278.686,403.521,279.272,402.893,280.18
			L402.893,280.18z M401.205,282.509c0.4-0.96,0.766-2.014,1.383-2.456C402.148,280.928,401.895,282.254,401.205,282.509
			L401.205,282.509z M399.441,283.737c0.27-0.67,0.586-1.229,1.002-1.544C400.182,282.885,399.885,283.487,399.441,283.737
			L399.441,283.737z M395.674,288.06c-0.242,0.528-0.611,0.761-0.965,1.024c0.039-0.817,0.826-1.662,1.322-2.306
			C396.328,287.2,394.643,288.581,395.674,288.06L395.674,288.06z M388.08,290.423c1.227-1.407,2.5-2.7,3.793-3.949
			C390.777,288.2,389.545,289.597,388.08,290.423L388.08,290.423z M393.111,291.632c0.75-0.933,1.584-1.666,2.422-2.383
			C395.119,290.797,393.572,291.217,393.111,291.632L393.111,291.632z M394.098,293.113c0.084-0.074,0.623-0.425,0.256-0.607
			c-0.242,0.53-0.273-0.133-0.648,0.266c0.816-1.079,1.787-1.778,2.703-2.622c-0.184,0.554-0.965,1.23-0.166,0.824
			C395.6,291.66,394.629,293.174,394.098,293.113L394.098,293.113z M385.111,292.399c0.641-0.287,1.139-0.915,1.764-1.229
			C386.422,291.708,385.469,292.643,385.111,292.399L385.111,292.399z M383.918,298.684c0.107-0.046,0.215-0.096,0.32-0.15
			c2.313-1.144,4.572-3.731,6.689-4.242c-2.025,1.662-4.67,3.286-6.689,4.242C384.131,298.586,384.021,298.638,383.918,298.684
			L383.918,298.684z M380.695,301.269c0.662-0.482,1.688-1.642,1.482-0.989c2.795-1.674,5.08-2.846,7.686-4.29
			C386.896,297.964,383.918,299.91,380.695,301.269L380.695,301.269z M381.545,299.658c0.723-0.191,1.73-1.301,2.221-1.038
			C383.07,298.877,382.025,299.896,381.545,299.658L381.545,299.658z M340.037,284.468c-0.357-0.395-1.424-1.714-0.709-1.725
			C339.469,283.278,340.582,284.073,340.037,284.468L340.037,284.468z M374.611,303.011c0.945-0.05,2.094-1.232,2.826-0.783
			C376.549,302.421,375.227,303.176,374.611,303.011L374.611,303.011z M345.912,290.493c-0.932-0.666-2.152-1.216-2.293-2.206
			C344.518,288.968,345.15,289.758,345.912,290.493L345.912,290.493z M369.756,304.376c0.656,0.255,1.518-0.58,1.836-0.126
			C370.969,304.071,370.145,305.002,369.756,304.376L369.756,304.376z M353.221,296.936c1.129,0.496,2.791,0.667,3.65,1.526
			C355.844,298.329,353.805,297.888,353.221,296.936L353.221,296.936z M360.039,299.428c-1.184-0.322-2.814-0.105-3.752-0.854
			C357.383,298.68,359.172,298.855,360.039,299.428L360.039,299.428z"/>
		<linearGradient id="SVGID_2_" gradientUnits="userSpaceOnUse" x1="340.876" y1="303.3799" x2="344.8529" y2="246.313">
			<stop  offset="0" style="stop-color:#00B8F1"/>
			<stop  offset="1" style="stop-color:#0088CF"/>
		</linearGradient>
		<path fill-rule="evenodd" clip-rule="evenodd" fill="url(#SVGID_2_)" d="M323.338,246.974c-0.209,0.379-0.42,0.77-0.627,1.157
			c0.607,0.367,0.951-0.785,1-1.346L323.338,246.974L323.338,246.974z M323.805,246.737c0.225,0.518-0.148,1.278-0.027,1.839
			c0.297-0.096,0.506-0.401,0.686-0.787c-0.283,1.859,0.109,3.146-0.805,4.488c-0.482,0.709-1.314,0.73-1.863,1.898
			c-0.434,0.924-0.252,2.122-0.598,3.144c0.436,0.039,0.648-0.465,0.99-0.66c0.424,0.947,1.223-0.016,2.014,0.306
			c1.398,1.67-0.029,4.885-1.184,5.399c-0.121,0.944-1.109,2.368-2.016,1.836c-1.072,0.536-0.535,1.9-1.182,3.257
			c-0.391-0.133-0.377-0.433-0.416-0.709c-0.234-0.094-0.225,0.75-0.23,0.975c-0.287-0.384-0.383-0.849-0.314-1.382
			c-0.484,0.166,0.084,0.966-0.484,1.584c-0.385,0.536-0.348-0.737-0.607-0.253c-0.223,0.888,0.309,1.47,0.088,2.357
			c-1.07-1.702-1.092-3.836-1.289-5.896c-0.369-0.078-0.326,0.844-0.775,0.57c-0.172-2.113-1.213-3.866-1.008-6.134
			c-0.475,0.028-0.598,0.142-0.977-0.23c-0.316,0.635-0.207,1.092-0.113,1.559c0.234,0.165,0.336,0.002,0.43-0.176
			c0.295,3.028,2.053,5.455,1.705,8.747c-1.096-1.315-1.143-3.061-1.43-4.705c-0.648,0.482-0.076,1.54-0.432,2.318
			c-0.328,0.363-0.314-0.39-0.672-0.101c-0.354-0.402-0.135-1.037-0.254-1.533c-0.188-0.05-0.242,0.223-0.342,0.392
			c-0.363-1.305-0.254-2.072-1.023-3.104c-0.555,3.081,0.91,6.006,0.514,8.604c0.26,0.773,0.395,1.603,0.605,2.397
			c0.426,0.014-0.156-0.592,0.229-0.977c0.523,2.473,1.848,4.614,2.834,6.897c0.141-1.108-0.625-2.933-0.883-4.297
			c1.105,0.977,1.424,1.816,2.215,3.245c0.055-0.455-0.172-1.2,0.406-0.544c-0.791-1.136-1.791-2.849-1.15-4.946
			c0.326,1.38,0.744,2.72,1.164,4.059c0.367,0.181,0.57-0.041,0.887,0.014c0.955,1.406,3.061,4.742,2.162,6.795
			c-0.42-0.195-0.406-0.844-1-0.596c0.488,1.535,1.678,1.528,2.43,3.155c0.268-0.124,0.16-0.214,0.191-0.454
			c0.584,0.726,1.051,1.498,1.559,2.257c0.598-0.02-0.162-0.503,0.164-0.824c0.684,0.823,1.408,1.174,1.926,2.232
			c0.578-0.047-0.111-0.612,0.014-0.887c1.215,0.927,1.756,2.133,2.797,3.133c-0.4,0.196-0.482-0.804-1.24-0.876
			c-0.172,1.104-0.018,1.405,0.67,2.244c0.248,0.024,0.041-0.14,0.127-0.305c0.578,0.77,1.445,1.422,1.709,2.32
			c-1.428-1.009-2.107-2.324-3.406-3.384c-0.752-0.254,0.133,0.588-0.016,0.884c-0.553-0.444-1.195-0.851-1.783-1.281
			c2.398,3.297,6.24,6.002,9.041,9.133c-0.205,0.35-1.119-0.55-0.799,0.202c-0.891-0.431-1.131-1.129-1.811-1.648
			c0.236,0.491,0.51,0.968,1.051,1.331c-0.316,0.392-0.451-0.294-0.762-0.317c0.803,1.267,3.064,1.933,4.055,3.122
			c-0.982,0.683-1.824-1.026-2.762-1.512c0.307-0.123,0.092,0.846-0.037,0.521c0.299,0.747,1.646,1.064,2.697,1.661
			c2.678,1.52,7.316,4.99,9.959,5.229c-1.541-1.166-4.809-2.171-4.75-3.59c-1.473-0.487-2.002-1.361-3.092-2.005
			c1.584,0.314,3.566,1.559,4.242,2.665c6.406,4.545,13.395,4.171,19.758,4.855c-0.043-0.47-0.768-0.059-1.129-0.293
			c0.514-0.282,1.207-0.129,1.838-0.124c-0.891-0.528-2.502-0.163-3.727-0.484c0.441-0.157,0.932-0.186,1.471-0.101
			c-0.111-0.55-0.879-0.12-1.279-0.354c1.109-0.646,1.885,0.397,2.99,0.533c1.934,0.236,4.01-0.516,6.027-0.902
			c-17.758-1.01-31.928-15.806-31.928-33.808c0-3.886,0.664-7.622,1.877-11.103l0.029,0.373c0.285-1.813,0.799-3.688,1.84-5.414
			c0.34,0.113-0.156,0.57-0.166,0.824c0.176-0.293,0.35-0.604,0.529-0.931c0.463-6.19,2.666-12.625,6.59-18.104l-4.074-0.048
			l-5.426,0.584c-1.193,0.716-2.371,1.469-3.525,2.283c0.051-0.188,0.205-0.42,0.037-0.52c-2.09,1.142-3.893,2.99-5.643,4.962
			c1.055-1.702,2.336-2.854,3.352-4.653L323.805,246.737L323.805,246.737z M369.891,308.583c-1.133,0.677-2.811,0.753-3.611,1.127
			c1.973,0.113,4.207-0.691,6.391-1.259C371.752,308.533,370.826,308.575,369.891,308.583L369.891,308.583z M366.025,262.743
			c-0.283-1.942-1.117-4.006-2.668-6.086l-0.096,0.162c-0.219-0.365-0.4-0.702-0.744-1.245c-0.414-0.479-0.848-0.907-1.299-1.283
			c-0.01,0.024-0.025,0.05-0.045,0.078c-0.863-0.4-2.051-0.667-2.305-1.319c-3.094-0.507-6.852,0.865-8.621,3.542
			c-0.148-0.092-0.262-0.152-0.35-0.194c0.438-5.113,2.369-9.935,5.803-13.579l3.857,2.843l8.25,9.878l0.115,6.273l-0.115,0.931
			H366.025L366.025,262.743z M339.93,262.928c-0.553,1.698-0.93,3.375-0.807,4.91c0.551-0.468,0.289,2.631,0.467,3.589
			c0.596-0.252,0.035-1.1,0.332-1.649c0.658,2.585,0.029,5.697,1.717,7.86c-0.539-3.17-1.379-6.221-0.967-9.781
			C340.287,266.274,340.039,264.623,339.93,262.928L339.93,262.928z M341.01,269.09c-0.059,1.783-0.096,3.56,0.252,5.177
			c0.336,0.014,0.111-0.789,0.076-1.039c0.781,0.8-0.031-1.057,0.332-1.646c0.627,0.454-0.035,1.439,0.859,1.785
			c-0.021-0.2-0.045-0.398-0.07-0.598C341.879,271.607,341.395,270.377,341.01,269.09L341.01,269.09z M357.584,252.279l-0.045,0.076
			c0.012,0.002,0.025,0.005,0.037,0.009c-2.164,0.044-3.805,1.363-5.795,1.835C353.355,252.986,355.555,252.155,357.584,252.279
			L357.584,252.279z M328.479,298.035c0.701,1.138,3.08,2.769,1.332,1.09C329.438,298.766,329.051,298.166,328.479,298.035
			L328.479,298.035z M323.375,295.724c0.295-0.336-0.764-1.193-1.293-1.61C322.328,294.726,323.02,295.156,323.375,295.724
			L323.375,295.724z M323.604,294.748c0.082,0.763,0.861,1.241,1.379,1.826C325.129,296.216,324.162,295.235,323.604,294.748
			L323.604,294.748z M319.117,291.806c-0.391,0.168,0.352,0.941,0.748,1.202C319.768,292.547,319.262,292.249,319.117,291.806
			L319.117,291.806z M325.111,294.128c0.207,0.798,0.957,1.372,1.469,2.042C326.646,295.761,325.773,294.656,325.111,294.128
			L325.111,294.128z M319.41,290.677c0.027,0.177,0.326,0.405,0.025,0.368c0.162,0.437,0.805,0.676,1.178,1.026
			C320.523,291.479,319.928,291.093,319.41,290.677L319.41,290.677z M325.404,293c0.77,1.571,2.984,2.553,4.254,3.92
			C328.516,295.5,327.566,294,325.404,293L325.404,293z M323.859,291.997c0.15,0.737,1.002,1.185,1.379,1.826
			C325.561,293.394,324.457,292.469,323.859,291.997L323.859,291.997z M317.84,289.306c0.152,0.441,0.469,0.815,0.746,1.206
			C318.904,290.373,318.236,289.568,317.84,289.306L317.84,289.306z M323.555,289.729c-0.6,0.176,0.377,0.761,0.443,1.078
			C324.449,290.695,323.707,290.012,323.555,289.729L323.555,289.729z M318.328,281.297c-0.363,0.117,0.258,0.894,0.594,1.142
			C318.977,281.954,318.541,281.669,318.328,281.297L318.328,281.297z M345.055,286.565c-0.365,0.156,0.523,0.868,0.961,1.115
			C345.979,287.192,345.258,286.983,345.055,286.565L345.055,286.565z M342.066,281.745c0.25-0.253,0.512,0.534,0.785,0.687
			c-0.055-0.085-0.891-1.968-1.582-2.628c0.111,0.691,0.625,1.228,0.34,1.752c-0.316,0.08-0.893-0.805-1.113-1.181
			c0.379,2.028,2.984,4.233,4.988,6.012C345.107,285.03,342.826,283.365,342.066,281.745L342.066,281.745z M342.678,279.857
			c0.635,2.929,2.795,6.325,6.268,8.509c-0.646-0.616-1.281-1.237-2.117-1.776c0.988-0.024,1.414,1.266,2.762,1.511
			C346.115,285.833,344.193,282.928,342.678,279.857L342.678,279.857z M339.045,273.163c-0.389,1.295,0.184,3.282,0.971,4.514
			C340.135,276.493,339.127,274.683,339.045,273.163L339.045,273.163z M317.797,263.754c-0.428,0.724,0.244,0.993,0.037,1.624
			C318.127,265.207,318.416,263.967,317.797,263.754L317.797,263.754z M312.74,260.038c0.008-0.509-0.277,0.171-0.127,0.304
			c-0.1,0.161-0.186,0.02-0.15-0.064c-0.422,0.144-0.176,1.072-0.266,1.496C313.01,261.627,312.658,260.62,312.74,260.038
			L312.74,260.038z M357.498,256.763c0.232-0.352-0.85,0.076-0.697-0.469c-0.182-0.031-0.229,0.259-0.43,0.178
			C356.252,257.096,357.146,256.809,357.498,256.763L357.498,256.763z M340.83,306.941c-0.734-1.191-2.684-1.189-0.455-0.191
			C340.527,306.813,340.68,306.877,340.83,306.941L340.83,306.941z M320.359,292.68c-0.414,0.344,0.586,1.183,1.141,1.547
			C321.436,293.582,320.645,293.234,320.359,292.68L320.359,292.68z M321.439,290.095c-0.648,0.439,0.553,1.196,0.709,1.725
			c0.785-0.305,1.068,0.937,1.723,1.433C324.377,292.162,321.701,291.291,321.439,290.095L321.439,290.095z M318.395,276.861
			c-0.01,0.55,0.104,1.05,0.684,1.354C318.836,277.771,319.053,277.136,318.395,276.861L318.395,276.861z M339.871,260.797
			c-0.229,0.461-0.395,1.039-0.045,1.087c0.002-0.122,0.018-0.25,0.043-0.381C339.865,261.269,339.869,261.034,339.871,260.797
			L339.871,260.797z M354.115,255.885c-0.758-0.1-1.236,0.477-1.699,1.076c0.256-0.089,0.367,0,0.238,0.28
			C353.398,257.416,353.686,256.482,354.115,255.885L354.115,255.885z M357.205,255.748c-0.066-0.439-0.992-0.4-1.102,0.075
			C356.475,255.809,356.834,255.765,357.205,255.748L357.205,255.748z M354.988,254.644c-1.055-0.294-3.021,1.402-3.525,2.457
			C352.701,256.433,353.752,255.315,354.988,254.644L354.988,254.644z M361.604,256.335c0.549,0.495,0.176,1.367,0.893,1.789
			l0.123-0.206C362.596,257.261,362.344,256.698,361.604,256.335L361.604,256.335z M359.705,254.472
			c-0.045-0.482-0.916-0.425-1.217-0.507C358.576,254.545,359.283,254.089,359.705,254.472L359.705,254.472z M359.855,254.536
			c0.207,0.585,1.852,0.581,1.787,1.279C362.316,255.236,360.604,254.639,359.855,254.536L359.855,254.536z M319.979,277.344
			c0.877,0.521,1.607,1.103,1.039,2.22C320.314,278.968,319.547,278.403,319.979,277.344L319.979,277.344z M331.467,242.875
			c0.398,0.188,0.76-0.115,1.109-0.561L331.467,242.875L331.467,242.875z M313.42,269.962c-0.262-0.818-0.609-1.596-0.545-2.547
			C313.928,267.826,313.697,269.423,313.42,269.962L313.42,269.962z M323.396,281.984c-0.785-0.053-0.889-1.366-1.102-2.066
			C323.168,280.399,323.355,281.162,323.396,281.984L323.396,281.984z M325.193,286.661c-0.174-0.601-1.225-1.507-0.797-1.936
			C324.453,285.374,325.576,286.25,325.193,286.661L325.193,286.661z M332.371,295.553c-1.182-0.702-2.512-2.645-2.707-2.918
			C330.555,293.613,331.604,294.524,332.371,295.553L332.371,295.553z M342.797,304.371c0.473,0.308,1.494,0.393,1.609,0.849
			C343.934,304.909,342.912,304.826,342.797,304.371L342.797,304.371z M343.607,305.424c-0.758-0.402-1.406-0.834-0.633-0.624
			c1.264,0.344,2.49,1.301,3.098,1.51c0.068,0.023,0.131,0.037,0.184,0.039c-0.061-0.012-0.123-0.024-0.184-0.039
			C345.131,306.094,344.213,305.742,343.607,305.424L343.607,305.424z"/>
		<linearGradient id="SVGID_3_" gradientUnits="userSpaceOnUse" x1="346.8359" y1="242.1113" x2="362.544" y2="273.7263">
			<stop  offset="0" style="stop-color:#00B8F1"/>
			<stop  offset="1" style="stop-color:#0088CF"/>
		</linearGradient>
		<path fill-rule="evenodd" clip-rule="evenodd" fill="url(#SVGID_3_)" d="M335.305,238.925c0.496-0.652,1.205-1.896,2.27-2.444
			c-0.711-0.5-1.566,1.293-2.32,1.711c-0.264-0.275,0.541-0.493,0.596-1.002c-0.607,0.056-1.008,0.608-1.57,0.771
			c-0.063-0.672,1.031-1.156,1.521-1.507c-1.666-0.067-3.275,2.652-5.186,3.012c-0.738,1.374-1.955,1.587-2.678,2.99
			c0.5,0.767-0.178,1.617-0.736,2.191c-0.348-0.475,0.477-0.648,0.508-1.216c-0.393,0.067-0.518,0.787-0.99,0.659
			c0.338-0.716,0.771-1.189,1.129-1.851c-2.27,0.6-3.713,3.221-5.137,5.889c0.693,0.422,1.043-1.145,1.004-1.546
			c0.395,0.511-0.07,1.376,0.063,1.993c0.295-0.098,0.506-0.402,0.686-0.787c-0.084,0.542-0.107,1.035-0.123,1.494
			c1.65-1.746,3.561-3.246,5.662-4.442c0.479-0.615,0.941-1.262,1.357-2.026c1.213,0.824,2.072-2.996,3.246-2.216
			c-0.154-0.018-0.684,0.504-0.406,0.542c1.346-1.12,3.121-2.827,4.629-2.529c-0.336,0.2-0.631,0.513-0.9,0.874
			c1.592-0.929,3.5-2.721,5.324-2.062c-3.289,1.803-6.602,3.555-9.725,5.76c0.051-0.19,0.205-0.42,0.037-0.52
			c-0.705,0.385-1.377,0.849-2.027,1.374c3.158-1.511,6.689-2.356,10.414-2.356c1.201,0,2.377,0.087,3.533,0.257
			c2.199-3.453,5.039-6.589,8.523-9.129C347.516,234.242,340.15,234.541,335.305,238.925L335.305,238.925z M364.664,257.426
			c-2-5.307-5.811-9.736-10.672-12.533c3.145-4.39,7.807-7.099,12.949-8.123c3.434,1.954,3.898,2.485,7.32,6.286
			c4.697,5.216,8.201,11.416,8.201,18.454c0,7.319-3.916,13.753-9.758,17.319c-8.688,2.879-19.182,0.209-24.578-14.015
			c-0.871-2.883-1.041-5.825-0.639-8.692c-0.201,2.47,0.031,4.979,0.775,7.444C351.936,275.722,369.971,271.504,364.664,257.426
			L364.664,257.426z M355.744,231.638c-0.529,0.098-1.029,0.225-1.486,0.383c0.061,0.144,0.203,0.254,0.389,0.346
			C355.006,232.118,355.371,231.873,355.744,231.638L355.744,231.638z M357.01,230.135c-0.195-0.558-1.078-0.19-1.408-0.052
			C355.711,230.427,356.594,230.057,357.01,230.135L357.01,230.135z M353.791,228.435c0.086,0.481,0.846,0.033,1.191,0.138
			C356.281,229.157,354.621,227.984,353.791,228.435L353.791,228.435z M323.172,244.038c-1.203,0.007-1.91,2.253-2.195,3.545
			C322.008,247.133,322.523,245.424,323.172,244.038L323.172,244.038z M326.051,241.847c-0.83,0.737-1.906,0.879-2.424,2.381
			C324.725,244.141,325.406,243.041,326.051,241.847L326.051,241.847z M357.328,229.374
			C358.791,230.611,359.473,229.218,357.328,229.374L357.328,229.374z M343.303,238.157c1.07,0.048,2.229-1.316,3.043-0.872
			C345.447,237.659,344.098,238.56,343.303,238.157L343.303,238.157z M339.473,240.488c0.727-0.688,1.383-1.538,2.408-1.494
			C341.193,239.769,340.365,240.205,339.473,240.488L339.473,240.488z M333.693,240.218c0.252-0.626,1.059-1.494,1.332-1.052
			C334.541,239.414,334.221,240.07,333.693,240.218L333.693,240.218z M330.066,243.345c0.672-1.026,1.348-2.031,2.271-2.441
			C331.844,242.355,331.006,242.974,330.066,243.345L330.066,243.345z"/>
		<linearGradient id="SVGID_4_" gradientUnits="userSpaceOnUse" x1="351.9795" y1="273.082" x2="376.2374" y2="238.286">
			<stop  offset="0" style="stop-color:#00B8F1"/>
			<stop  offset="1" style="stop-color:#0088CF"/>
		</linearGradient>
		<path fill-rule="evenodd" clip-rule="evenodd" fill="url(#SVGID_4_)" d="M376.168,276.174c-3.643,3.471-8.568,5.608-13.977,5.608
			c-8.857,0-16.422-5.732-19.168-13.678c-4.678-17.366,4.354-33.625,23.033-37.426c0.803-0.167,3.9-0.266,2.068-1.783l10.242,1.22
			l-8.734,4.467c0.996-1.77-0.619-1.524-1.693-1.292c-13.029,2.731-23.645,17.133-19.676,30.276
			C354.373,279.668,367.012,280.967,376.168,276.174L376.168,276.174z"/>
	</g>
</g>
</svg>
