<?xml version="1.0" standalone="no"?><!DOCTYPE svg PUBLIC "-//W3C//DTD SVG 1.1//EN" "http://www.w3.org/Graphics/SVG/1.1/DTD/svg11.dtd"><svg t="1494476934868" class="icon" style="" viewBox="0 0 1024 1024" version="1.1" xmlns="http://www.w3.org/2000/svg" p-id="1013" xmlns:xlink="http://www.w3.org/1999/xlink" width="200" height="200"><defs><style type="text/css"></style></defs><path d="M815.5 345.6H214.6c-49.6 0-88.9 41.8-85.8 91.3l24.9 398.2c2.8 45.3 40.4 80.6 85.8 80.6h551.1c45.4 0 82.9-35.3 85.8-80.6l24.9-398.2c3-49.5-36.3-91.3-85.8-91.3zM394.2 117c-11.6-11.6-30.4-11.6-42 0l-58.8 58.8c-11.6 11.6-11.6 30.4 0 42 11.6 11.6 30.4 11.6 42 0l58.8-58.8c11.6-11.6 11.6-30.4 0-42zM768.6 175.7l-59-59c-11.6-11.6-30.5-11.6-42.1 0-11.6 11.6-11.6 30.5 0 42.1l59 59c11.6 11.6 30.5 11.6 42.1 0 11.7-11.7 11.7-30.5 0-42.1z" fill="#FD6155" p-id="1014"></path><path d="M368.9 525.6c-8.1 0-14.6 6.5-14.6 14.6v204.6c0 8.1 6.5 14.6 14.6 14.6s14.6-6.5 14.6-14.6V540.2c0-8.1-6.5-14.6-14.6-14.6z m146.1 0c-8.1 0-14.6 6.5-14.6 14.6v204.6c0 8.1 6.5 14.6 14.6 14.6s14.6-6.5 14.6-14.6V540.2c0-8.1-6.5-14.6-14.6-14.6z m146.1 0c-8.1 0-14.6 6.5-14.6 14.6v204.6c0 8.1 6.5 14.6 14.6 14.6s14.6-6.5 14.6-14.6V540.2c0-8.1-6.5-14.6-14.6-14.6z" fill="#FEF3D5" p-id="1015"></path><path d="M849 179.3H181c-45.1 0-81.7 36.6-81.7 81.7v50.5c0 45.1 36.6 81.7 81.7 81.7h668c45.1 0 81.7-36.6 81.7-81.7V261c0-45.2-36.6-81.7-81.7-81.7z" fill="#FEC053" p-id="1016"></path></svg>